STARTFONT 2.1
COMMENT Created by fdbbdf
FONT times16b
SIZE 16 78 78
FONTBOUNDINGBOX 20 18 -2 -5
STARTPROPERTIES 4
Ownership "  Copyright (c) 1984 Adobe Systems, Inc.  /adobe/fonttools/stdfontvec.ps TM18.bits  GUIDELINES -4 0 9 13 DONE  WIDTHERR -73 -154  "
FONT_ASCENT 13
FONT_DESCENT 5
DEFAULT_CHAR 32
ENDPROPERTIES
CHARS 95
STARTCHAR sp
ENCODING -1 32
SWIDTH 0 0
DWIDTH 5 0
BBX 0 0 0 0
BITMAP
ENDCHAR
STARTCHAR !
ENCODING -1 33
SWIDTH 0 0
DWIDTH 6 0
BBX 3 13 1 -1
BITMAP
4000
e000
e000
e000
e000
e000
e000
4000
4000
0000
4000
e000
4000
ENDCHAR
STARTCHAR "
ENCODING -1 34
SWIDTH 0 0
DWIDTH 10 0
BBX 6 6 2 6
BITMAP
cc00
cc00
cc00
cc00
8800
0000
ENDCHAR
STARTCHAR #
ENCODING -1 35
SWIDTH 0 0
DWIDTH 9 0
BBX 10 13 -1 -1
BITMAP
0d80
0d80
0d80
0d80
7fc0
7fc0
1b00
1b00
ff80
ff80
3600
3600
3600
ENDCHAR
STARTCHAR $
ENCODING -1 36
SWIDTH 0 0
DWIDTH 9 0
BBX 8 16 0 -3
BITMAP
1800
3e00
5b00
db00
d800
f800
7c00
3e00
1f00
1f00
1b00
db00
da00
7c00
1800
1800
ENDCHAR
STARTCHAR %
ENCODING -1 37
SWIDTH 0 0
DWIDTH 18 0
BBX 14 13 1 -1
BITMAP
3c18
77f0
e260
e240
e4c0
fd80
7378
06ec
06c4
0dc4
19c8
31f8
30e0
ENDCHAR
STARTCHAR &
ENCODING -1 38
SWIDTH 0 0
DWIDTH 16 0
BBX 13 13 2 -1
BITMAP
1e00
3300
7300
7300
7a00
3cf0
3c60
5e40
cf80
c780
e3c0
fff8
7cf0
ENDCHAR
STARTCHAR '
ENCODING -1 39
SWIDTH 0 0
DWIDTH 6 0
BBX 4 6 1 6
BITMAP
7000
7000
7000
3000
6000
c000
ENDCHAR
STARTCHAR (
ENCODING -1 40
SWIDTH 0 0
DWIDTH 6 0
BBX 5 17 1 -5
BITMAP
0800
1000
3000
6000
6000
e000
c000
c000
c000
c000
c000
e000
6000
6000
3000
1000
0800
ENDCHAR
STARTCHAR )
ENCODING -1 41
SWIDTH 0 0
DWIDTH 6 0
BBX 5 17 0 -5
BITMAP
8000
4000
6000
3000
3000
3800
1800
1800
1800
1800
1800
3800
3000
2000
6000
4000
8000
ENDCHAR
STARTCHAR *
ENCODING -1 42
SWIDTH 0 0
DWIDTH 9 0
BBX 8 9 0 3
BITMAP
1800
1800
db00
7e00
3c00
7e00
db00
1800
1800
ENDCHAR
STARTCHAR +
ENCODING -1 43
SWIDTH 0 0
DWIDTH 11 0
BBX 8 8 1 0
BITMAP
1800
1800
1800
ff00
ff00
1800
1800
1800
ENDCHAR
STARTCHAR ,
ENCODING -1 44
SWIDTH 0 0
DWIDTH 5 0
BBX 4 6 0 -4
BITMAP
7000
7000
7000
3000
6000
c000
ENDCHAR
STARTCHAR -
ENCODING -1 45
SWIDTH 0 0
DWIDTH 8 0
BBX 6 2 1 3
BITMAP
fc00
fc00
ENDCHAR
STARTCHAR .
ENCODING -1 46
SWIDTH 0 0
DWIDTH 5 0
BBX 3 3 1 -1
BITMAP
e000
e000
e000
ENDCHAR
STARTCHAR /
ENCODING -1 47
SWIDTH 0 0
DWIDTH 6 0
BBX 5 13 0 -1
BITMAP
1800
1800
1800
3000
3000
3000
2000
6000
6000
6000
c000
c000
c000
ENDCHAR
STARTCHAR 0
ENCODING -1 48
SWIDTH 0 0
DWIDTH 9 0
BBX 8 13 0 -1
BITMAP
3c00
6600
6700
e700
e700
e700
e700
e700
e700
e700
6600
6600
3c00
ENDCHAR
STARTCHAR 1
ENCODING -1 49
SWIDTH 0 0
DWIDTH 9 0
BBX 8 13 0 -1
BITMAP
1c00
3c00
fc00
1c00
1c00
1c00
1c00
1c00
1c00
1c00
1c00
1c00
7f00
ENDCHAR
STARTCHAR 2
ENCODING -1 50
SWIDTH 0 0
DWIDTH 9 0
BBX 8 13 0 -1
BITMAP
3c00
7e00
cf00
8700
0700
0700
0600
0c00
1800
3000
6100
ff00
ff00
ENDCHAR
STARTCHAR 3
ENCODING -1 51
SWIDTH 0 0
DWIDTH 9 0
BBX 8 13 0 -1
BITMAP
3c00
6e00
c700
0700
0e00
3c00
3e00
0f00
0700
0700
c700
ee00
7c00
ENDCHAR
STARTCHAR 4
ENCODING -1 52
SWIDTH 0 0
DWIDTH 9 0
BBX 8 13 0 -1
BITMAP
0e00
1e00
1e00
3e00
2e00
6e00
4e00
ce00
ff00
ff00
0e00
0e00
0e00
ENDCHAR
STARTCHAR 5
ENCODING -1 53
SWIDTH 0 0
DWIDTH 9 0
BBX 8 13 0 -1
BITMAP
3f00
3f00
6000
4000
7800
7e00
0f00
0700
0700
0700
c700
ee00
7800
ENDCHAR
STARTCHAR 6
ENCODING -1 54
SWIDTH 0 0
DWIDTH 9 0
BBX 8 13 0 -1
BITMAP
0700
1c00
3800
7000
6000
fc00
e600
e700
e700
e700
e700
6600
3c00
ENDCHAR
STARTCHAR 7
ENCODING -1 55
SWIDTH 0 0
DWIDTH 9 0
BBX 8 13 0 -1
BITMAP
ff00
ff00
fe00
8600
0c00
0c00
0c00
1800
1800
3800
3000
3000
7000
ENDCHAR
STARTCHAR 8
ENCODING -1 56
SWIDTH 0 0
DWIDTH 9 0
BBX 8 13 0 -1
BITMAP
3c00
7600
e300
e300
f600
7c00
3c00
6e00
c700
c700
c700
6e00
3c00
ENDCHAR
STARTCHAR 9
ENCODING -1 57
SWIDTH 0 0
DWIDTH 9 0
BBX 8 13 0 -1
BITMAP
3c00
6600
e700
e700
e700
e700
6700
3f00
0700
0600
0e00
3c00
f000
ENDCHAR
STARTCHAR :
ENCODING -1 58
SWIDTH 0 0
DWIDTH 5 0
BBX 3 9 1 -1
BITMAP
e000
e000
e000
0000
0000
0000
e000
e000
e000
ENDCHAR
STARTCHAR ;
ENCODING -1 59
SWIDTH 0 0
DWIDTH 5 0
BBX 4 12 0 -4
BITMAP
7000
7000
7000
0000
0000
0000
7000
7000
7000
3000
6000
c000
ENDCHAR
STARTCHAR <
ENCODING -1 60
SWIDTH 0 0
DWIDTH 11 0
BBX 9 9 1 -1
BITMAP
0380
0f00
3c00
f000
c000
f000
3c00
0f00
0380
ENDCHAR
STARTCHAR =
ENCODING -1 61
SWIDTH 0 0
DWIDTH 11 0
BBX 9 6 1 1
BITMAP
7f00
7f00
0000
0000
7f00
7f00
ENDCHAR
STARTCHAR >
ENCODING -1 62
SWIDTH 0 0
DWIDTH 11 0
BBX 9 9 1 -1
BITMAP
e000
7800
1e00
0780
0180
0780
1e00
7800
e000
ENDCHAR
STARTCHAR ?
ENCODING -1 63
SWIDTH 0 0
DWIDTH 9 0
BBX 7 13 1 -1
BITMAP
7c00
ce00
ee00
ee00
4e00
0c00
1800
1000
1000
0000
1000
3800
1000
ENDCHAR
STARTCHAR @
ENCODING -1 64
SWIDTH 0 0
DWIDTH 17 0
BBX 15 16 1 -4
BITMAP
03e0
0f38
380c
3016
61f6
6766
c666
ce66
ccc6
cccc
cfec
6738
6000
3800
1e00
07f0
ENDCHAR
STARTCHAR A
ENCODING -1 65
SWIDTH 0 0
DWIDTH 14 0
BBX 14 13 -1 -1
BITMAP
0300
0380
0780
05c0
0dc0
08c0
18e0
1060
3ff0
2070
6038
6038
f8fc
ENDCHAR
STARTCHAR B
ENCODING -1 66
SWIDTH 0 0
DWIDTH 12 0
BBX 10 13 1 -1
BITMAP
ff00
7380
71c0
71c0
71c0
7f80
7300
7180
71c0
71c0
71c0
7380
ff00
ENDCHAR
STARTCHAR C
ENCODING -1 67
SWIDTH 0 0
DWIDTH 14 0
BBX 12 13 1 -1
BITMAP
0f90
38f0
7070
7030
e000
e000
e000
e000
e000
7010
7030
38e0
0f80
ENDCHAR
STARTCHAR D
ENCODING -1 68
SWIDTH 0 0
DWIDTH 14 0
BBX 12 13 1 -1
BITMAP
ff00
71c0
70e0
7060
7070
7070
7070
7070
7070
7060
70e0
71c0
ff00
ENDCHAR
STARTCHAR E
ENCODING -1 69
SWIDTH 0 0
DWIDTH 13 0
BBX 10 13 1 -1
BITMAP
ffc0
70c0
7040
7000
7000
7100
7f00
7100
7000
7000
7040
70c0
ffc0
ENDCHAR
STARTCHAR F
ENCODING -1 70
SWIDTH 0 0
DWIDTH 12 0
BBX 10 13 1 -1
BITMAP
ffc0
70c0
7040
7000
7000
7100
7f00
7100
7000
7000
7000
7000
f800
ENDCHAR
STARTCHAR G
ENCODING -1 71
SWIDTH 0 0
DWIDTH 15 0
BBX 13 13 1 -1
BITMAP
0f90
38f0
7070
7030
e000
e000
e0f8
e070
e070
7070
7070
38f0
0fc0
ENDCHAR
STARTCHAR H
ENCODING -1 72
SWIDTH 0 0
DWIDTH 15 0
BBX 13 13 1 -1
BITMAP
f8f8
7070
7070
7070
7070
7070
7ff0
7070
7070
7070
7070
7070
f8f8
ENDCHAR
STARTCHAR I
ENCODING -1 73
SWIDTH 0 0
DWIDTH 8 0
BBX 5 13 1 -1
BITMAP
f800
7000
7000
7000
7000
7000
7000
7000
7000
7000
7000
7000
f800
ENDCHAR
STARTCHAR J
ENCODING -1 74
SWIDTH 0 0
DWIDTH 9 0
BBX 8 15 0 -3
BITMAP
1f00
0e00
0e00
0e00
0e00
0e00
0e00
0e00
0e00
0e00
0e00
0e00
ee00
ec00
7800
ENDCHAR
STARTCHAR K
ENCODING -1 75
SWIDTH 0 0
DWIDTH 15 0
BBX 12 13 2 -1
BITMAP
f9f0
70c0
7180
7300
7600
7c00
7c00
7e00
7f00
7780
73c0
71e0
fbf0
ENDCHAR
STARTCHAR L
ENCODING -1 76
SWIDTH 0 0
DWIDTH 12 0
BBX 10 13 1 -1
BITMAP
f800
7000
7000
7000
7000
7000
7000
7000
7000
7000
7040
70c0
ffc0
ENDCHAR
STARTCHAR M
ENCODING -1 77
SWIDTH 0 0
DWIDTH 17 0
BBX 15 13 1 -1
BITMAP
f01e
701c
783c
783c
7c7c
5c5c
5edc
4e9c
4f9c
479c
471c
431c
e33e
ENDCHAR
STARTCHAR N
ENCODING -1 78
SWIDTH 0 0
DWIDTH 14 0
BBX 12 13 1 -1
BITMAP
f070
7820
7820
7c20
5e20
4e20
4f20
47a0
43a0
43e0
41e0
40e0
e060
ENDCHAR
STARTCHAR O
ENCODING -1 79
SWIDTH 0 0
DWIDTH 16 0
BBX 13 13 1 -1
BITMAP
0f80
38e0
7070
7070
e038
e038
e038
e038
e038
7070
7070
38e0
0f80
ENDCHAR
STARTCHAR P
ENCODING -1 80
SWIDTH 0 0
DWIDTH 12 0
BBX 10 13 1 -1
BITMAP
ff00
7380
71c0
71c0
71c0
7380
7f00
7000
7000
7000
7000
7000
f800
ENDCHAR
STARTCHAR Q
ENCODING -1 81
SWIDTH 0 0
DWIDTH 15 0
BBX 13 17 1 -5
BITMAP
0f80
38e0
7070
7070
e038
e038
e038
e038
e038
7070
7070
38e0
0f80
0f00
0780
03e0
00f8
ENDCHAR
STARTCHAR R
ENCODING -1 82
SWIDTH 0 0
DWIDTH 14 0
BBX 12 13 1 -1
BITMAP
ff00
7380
71c0
71c0
71c0
7380
7f00
7700
7380
7380
71c0
70e0
f9f0
ENDCHAR
STARTCHAR S
ENCODING -1 83
SWIDTH 0 0
DWIDTH 11 0
BBX 9 13 1 -1
BITMAP
3e80
6380
e180
f080
f800
7c00
3e00
1f00
0f80
8780
c380
e300
be00
ENDCHAR
STARTCHAR T
ENCODING -1 84
SWIDTH 0 0
DWIDTH 12 0
BBX 11 13 0 -1
BITMAP
ffe0
ce60
8e20
0e00
0e00
0e00
0e00
0e00
0e00
0e00
0e00
0e00
1f00
ENDCHAR
STARTCHAR U
ENCODING -1 85
SWIDTH 0 0
DWIDTH 13 0
BBX 12 13 0 -1
BITMAP
f8f0
7020
7020
7020
7020
7020
7020
7020
7020
7020
7060
38c0
1f80
ENDCHAR
STARTCHAR V
ENCODING -1 86
SWIDTH 0 0
DWIDTH 14 0
BBX 14 13 0 -1
BITMAP
f83c
7018
7810
3830
3c20
1c60
1e40
0ec0
0f80
0780
0700
0300
0300
ENDCHAR
STARTCHAR W
ENCODING -1 87
SWIDTH 0 0
DWIDTH 17 0
BBX 18 13 0 -1
BITMAP
fbe3c000
71c18000
79c10000
38e30000
3ce20000
1c620000
1e760000
0ef40000
0eb40000
07bc0000
073c0000
03180000
03180000
ENDCHAR
STARTCHAR X
ENCODING -1 88
SWIDTH 0 0
DWIDTH 14 0
BBX 13 13 0 -1
BITMAP
f878
7030
3860
3cc0
1f80
0f00
0700
0780
0fc0
19e0
30e0
6070
f0f8
ENDCHAR
STARTCHAR Y
ENCODING -1 89
SWIDTH 0 0
DWIDTH 13 0
BBX 13 13 0 -1
BITMAP
fc78
7830
3860
1c40
1cc0
0e80
0f80
0700
0700
0700
0700
0700
1fc0
ENDCHAR
STARTCHAR Z
ENCODING -1 90
SWIDTH 0 0
DWIDTH 12 0
BBX 10 13 1 -1
BITMAP
ffc0
c3c0
8380
0780
0f00
0e00
1e00
3c00
3800
7800
f040
e0c0
ffc0
ENDCHAR
STARTCHAR [
ENCODING -1 91
SWIDTH 0 0
DWIDTH 7 0
BBX 5 16 1 -4
BITMAP
f800
e000
e000
e000
e000
e000
e000
e000
e000
e000
e000
e000
e000
e000
e000
f800
ENDCHAR
STARTCHAR \
ENCODING -1 92
SWIDTH 0 0
DWIDTH 5 0
BBX 5 13 0 -1
BITMAP
c000
c000
c000
6000
6000
6000
2000
3000
3000
3000
1800
1800
1800
ENDCHAR
STARTCHAR ]
ENCODING -1 93
SWIDTH 0 0
DWIDTH 6 0
BBX 5 16 1 -4
BITMAP
f800
3800
3800
3800
3800
3800
3800
3800
3800
3800
3800
3800
3800
3800
3800
f800
ENDCHAR
STARTCHAR ^
ENCODING -1 94
SWIDTH 0 0
DWIDTH 11 0
BBX 8 7 1 5
BITMAP
1800
1800
3c00
2400
6600
c300
c300
ENDCHAR
STARTCHAR _
ENCODING -1 95
SWIDTH 0 0
DWIDTH 9 0
BBX 10 4 0 -5
BITMAP
0000
0000
0000
ffc0
ENDCHAR
STARTCHAR `
ENCODING -1 96
SWIDTH 0 0
DWIDTH 6 0
BBX 4 6 1 6
BITMAP
3000
6000
c000
e000
e000
e000
ENDCHAR
STARTCHAR a
ENCODING -1 97
SWIDTH 0 0
DWIDTH 9 0
BBX 8 9 0 -1
BITMAP
7c00
ce00
ce00
1e00
6e00
ce00
ce00
fe00
7700
ENDCHAR
STARTCHAR b
ENCODING -1 98
SWIDTH 0 0
DWIDTH 9 0
BBX 9 13 -1 -1
BITMAP
f000
7000
7000
7000
7600
7f00
7380
7380
7380
7380
7380
7b00
6e00
ENDCHAR
STARTCHAR c
ENCODING -1 99
SWIDTH 0 0
DWIDTH 8 0
BBX 7 9 0 -1
BITMAP
3c00
7600
e600
e000
e000
e000
e200
7600
3c00
ENDCHAR
STARTCHAR d
ENCODING -1 100
SWIDTH 0 0
DWIDTH 10 0
BBX 9 13 0 -1
BITMAP
0f00
0700
0700
0700
3700
7f00
e700
e700
e700
e700
e700
6700
3b80
ENDCHAR
STARTCHAR e
ENCODING -1 101
SWIDTH 0 0
DWIDTH 8 0
BBX 7 9 0 -1
BITMAP
3c00
6e00
e600
fe00
e000
e000
e200
7600
3c00
ENDCHAR
STARTCHAR f
ENCODING -1 102
SWIDTH 0 0
DWIDTH 7 0
BBX 7 13 0 -1
BITMAP
1e00
3600
7000
7000
fc00
7000
7000
7000
7000
7000
7000
7000
f800
ENDCHAR
STARTCHAR g
ENCODING -1 103
SWIDTH 0 0
DWIDTH 10 0
BBX 9 13 0 -5
BITMAP
3f80
6700
e700
e700
e600
7c00
6000
7e00
ff00
c380
c380
e700
7e00
ENDCHAR
STARTCHAR h
ENCODING -1 104
SWIDTH 0 0
DWIDTH 11 0
BBX 10 13 0 -1
BITMAP
f000
7000
7000
7000
7700
7f80
7380
7380
7380
7380
7380
7380
fbc0
ENDCHAR
STARTCHAR i
ENCODING -1 105
SWIDTH 0 0
DWIDTH 6 0
BBX 5 13 0 -1
BITMAP
7000
7000
7000
0000
f000
7000
7000
7000
7000
7000
7000
7000
f800
ENDCHAR
STARTCHAR j
ENCODING -1 106
SWIDTH 0 0
DWIDTH 6 0
BBX 6 17 -2 -5
BITMAP
1c00
1c00
1c00
0000
7c00
1c00
1c00
1c00
1c00
1c00
1c00
1c00
1c00
1c00
dc00
d800
7000
ENDCHAR
STARTCHAR k
ENCODING -1 107
SWIDTH 0 0
DWIDTH 11 0
BBX 10 13 0 -1
BITMAP
f000
7000
7000
7000
7380
7300
7600
7c00
7c00
7e00
7700
7380
f7c0
ENDCHAR
STARTCHAR l
ENCODING -1 108
SWIDTH 0 0
DWIDTH 6 0
BBX 5 13 0 -1
BITMAP
f000
7000
7000
7000
7000
7000
7000
7000
7000
7000
7000
7000
f800
ENDCHAR
STARTCHAR m
ENCODING -1 109
SWIDTH 0 0
DWIDTH 16 0
BBX 15 9 0 -1
BITMAP
f738
7bdc
739c
739c
739c
739c
739c
739c
fbde
ENDCHAR
STARTCHAR n
ENCODING -1 110
SWIDTH 0 0
DWIDTH 11 0
BBX 10 9 0 -1
BITMAP
e700
7b80
7380
7380
7380
7380
7380
7380
fbc0
ENDCHAR
STARTCHAR o
ENCODING -1 111
SWIDTH 0 0
DWIDTH 9 0
BBX 8 9 0 -1
BITMAP
3c00
6600
e700
e700
e700
e700
e700
6600
3c00
ENDCHAR
STARTCHAR p
ENCODING -1 112
SWIDTH 0 0
DWIDTH 10 0
BBX 9 13 0 -5
BITMAP
e600
7f00
7380
7380
7380
7380
7380
7b00
7e00
7000
7000
7000
f800
ENDCHAR
STARTCHAR q
ENCODING -1 113
SWIDTH 0 0
DWIDTH 10 0
BBX 9 13 0 -5
BITMAP
3900
7700
e700
e700
e700
e700
e700
7700
3f00
0700
0700
0700
0f80
ENDCHAR
STARTCHAR r
ENCODING -1 114
SWIDTH 0 0
DWIDTH 8 0
BBX 7 9 0 -1
BITMAP
ee00
7600
7000
7000
7000
7000
7000
7000
f800
ENDCHAR
STARTCHAR s
ENCODING -1 115
SWIDTH 0 0
DWIDTH 7 0
BBX 6 9 0 -1
BITMAP
7c00
cc00
e400
f000
7800
3c00
9c00
cc00
f800
ENDCHAR
STARTCHAR t
ENCODING -1 116
SWIDTH 0 0
DWIDTH 7 0
BBX 6 11 0 -1
BITMAP
1000
3000
fc00
7000
7000
7000
7000
7000
7000
7400
3800
ENDCHAR
STARTCHAR u
ENCODING -1 117
SWIDTH 0 0
DWIDTH 11 0
BBX 10 9 0 -1
BITMAP
f780
7380
7380
7380
7380
7380
7380
7f80
39c0
ENDCHAR
STARTCHAR v
ENCODING -1 118
SWIDTH 0 0
DWIDTH 9 0
BBX 10 9 -1 -1
BITMAP
fbc0
7180
7100
3b00
3a00
1e00
1e00
0c00
0c00
ENDCHAR
STARTCHAR w
ENCODING -1 119
SWIDTH 0 0
DWIDTH 13 0
BBX 14 9 -1 -1
BITMAP
f7bc
7318
7310
3bb0
39a0
1de0
1fe0
0cc0
0cc0
ENDCHAR
STARTCHAR x
ENCODING -1 120
SWIDTH 0 0
DWIDTH 10 0
BBX 9 9 0 -1
BITMAP
e780
e300
7600
3c00
1c00
1e00
3700
6380
f780
ENDCHAR
STARTCHAR y
ENCODING -1 121
SWIDTH 0 0
DWIDTH 9 0
BBX 10 13 -1 -5
BITMAP
fbc0
7180
7100
3b00
3a00
1e00
1e00
0c00
0c00
0c00
0c00
d800
f000
ENDCHAR
STARTCHAR z
ENCODING -1 122
SWIDTH 0 0
DWIDTH 8 0
BBX 7 9 0 -1
BITMAP
fe00
ce00
9e00
3c00
3800
7800
f200
e600
fe00
ENDCHAR
STARTCHAR {
ENCODING -1 123
SWIDTH 0 0
DWIDTH 8 0
BBX 7 17 0 -5
BITMAP
1e00
3c00
3000
3000
3000
3000
3000
7000
e000
7000
3000
3000
3000
3000
3000
3c00
1e00
ENDCHAR
STARTCHAR |
ENCODING -1 124
SWIDTH 0 0
DWIDTH 4 0
BBX 2 17 1 -5
BITMAP
c000
c000
c000
c000
c000
c000
c000
c000
c000
c000
c000
c000
c000
c000
c000
c000
c000
ENDCHAR
STARTCHAR }
ENCODING -1 125
SWIDTH 0 0
DWIDTH 8 0
BBX 7 17 1 -5
BITMAP
f000
3800
1800
1800
1800
1800
1800
0c00
0600
0c00
1800
1800
1800
1800
1800
3800
f000
ENDCHAR
STARTCHAR ~
ENCODING -1 126
SWIDTH 0 0
DWIDTH 10 0
BBX 8 4 1 2
BITMAP
7000
f900
9f00
0e00
ENDCHAR
ENDFONT
